<?xml version="1.0" encoding="UTF-8" standalone="no"?>
<!-- Created with Inkscape (http://www.inkscape.org/) -->

<svg
   xmlns:dc="http://purl.org/dc/elements/1.1/"
   xmlns:cc="http://creativecommons.org/ns#"
   xmlns:rdf="http://www.w3.org/1999/02/22-rdf-syntax-ns#"
   xmlns:svg="http://www.w3.org/2000/svg"
   xmlns="http://www.w3.org/2000/svg"
   xmlns:sodipodi="http://sodipodi.sourceforge.net/DTD/sodipodi-0.dtd"
   xmlns:inkscape="http://www.inkscape.org/namespaces/inkscape"
   width="250.36995"
   height="100.72266"
   id="svg2"
   version="1.1"
   inkscape:version="0.48.1 r9760"
   sodipodi:docname="New document 1">
  <defs
     id="defs4" />
  <sodipodi:namedview
     id="base"
     pagecolor="#ffffff"
     bordercolor="#666666"
     borderopacity="1.0"
     inkscape:pageopacity="0.0"
     inkscape:pageshadow="2"
     inkscape:zoom="0.35"
     inkscape:cx="-65.529313"
     inkscape:cy="156.07562"
     inkscape:document-units="px"
     inkscape:current-layer="layer1"
     showgrid="false"
     fit-margin-top="0"
     fit-margin-left="0"
     fit-margin-right="0"
     fit-margin-bottom="0"
     inkscape:window-width="496"
     inkscape:window-height="419"
     inkscape:window-x="0"
     inkscape:window-y="53"
     inkscape:window-maximized="0" />
  <metadata
     id="metadata7">
    <rdf:RDF>
      <cc:Work
         rdf:about="">
        <dc:format>image/svg+xml</dc:format>
        <dc:type
           rdf:resource="http://purl.org/dc/dcmitype/StillImage" />
        <dc:title></dc:title>
      </cc:Work>
    </rdf:RDF>
  </metadata>
  <g
     inkscape:label="Layer 1"
     inkscape:groupmode="layer"
     id="layer1"
     transform="translate(-440.52931,-587.71514)">
    <path
       style="fill:#0089c9;fill-opacity:1;stroke:none"
       d="m 455.10792,677.24783 c -20.7619,-15.5937 -17.2742,-59.5619 -2.5,-77.5 13.6805,-16.6102 210.35145,-15.5813 229.99985,0.3572 12.1619,9.8655 11.4108,66.7832 -5.3571,78.5714 -21.71725,15.2677 -205.67005,10.9437 -222.14275,-1.4286 z"
       id="path4305-1-9"
       inkscape:connector-curvature="0"
       sodipodi:nodetypes="sssss"
       inkscape:export-filename="/home/etinquis/engine.png"
       inkscape:export-xdpi="122.51501"
       inkscape:export-ydpi="122.51501" />
    <text
       xml:space="preserve"
       style="font-size:57.9861145px;font-style:normal;font-variant:normal;font-weight:bold;font-stretch:normal;line-height:125%;letter-spacing:0px;word-spacing:0px;fill:#ffffff;fill-opacity:1;stroke:none;font-family:Norasi;-inkscape-font-specification:Norasi Bold"
       x="445.38403"
       y="655.43329"
       id="text4238-1-2"
       sodipodi:linespacing="125%"
       transform="scale(1.0357652,0.96546978)"
       inkscape:export-filename="/home/etinquis/engine.png"
       inkscape:export-xdpi="122.51501"
       inkscape:export-ydpi="122.51501"><tspan
         sodipodi:role="line"
         id="tspan4240-4-1"
         x="445.38403"
         y="655.43329">monocle</tspan></text>
    <text
       xml:space="preserve"
       style="font-size:48.57419586px;font-style:normal;font-variant:normal;font-weight:bold;font-stretch:normal;line-height:125%;letter-spacing:0px;word-spacing:0px;fill:#ffffff;fill-opacity:1;stroke:none;font-family:OpenSymbol;-inkscape-font-specification:OpenSymbol Bold"
       x="438.55521"
       y="704.1217"
       id="text4242-8-6"
       sodipodi:linespacing="125%"
       transform="scale(1.0500404,0.95234431)"
       inkscape:export-filename="/home/etinquis/engine.png"
       inkscape:export-xdpi="122.51501"
       inkscape:export-ydpi="122.51501"><tspan
         sodipodi:role="line"
         id="tspan4244-4-7"
         x="438.55521"
         y="704.1217">ENGINE</tspan></text>
    <path
       sodipodi:type="arc"
       style="fill:#ffffff;fill-opacity:1;stroke:none"
       id="path4246-2-2"
       sodipodi:cx="840.06812"
       sodipodi:cy="613.78479"
       sodipodi:rx="2.1465743"
       sodipodi:ry="2.0203052"
       d="m 842.21469,613.78479 c 0,1.11578 -0.96105,2.02031 -2.14657,2.02031 -1.18552,0 -2.14658,-0.90453 -2.14658,-2.02031 0,-1.11578 0.96106,-2.02031 2.14658,-2.02031 1.18552,0 2.14657,0.90453 2.14657,2.02031 z"
       transform="matrix(0.55882355,0,0,0.55882355,128.77962,266.13132)"
       inkscape:export-filename="/home/etinquis/engine.png"
       inkscape:export-xdpi="122.51501"
       inkscape:export-ydpi="122.51501" />
    <path
       sodipodi:type="arc"
       style="fill:#ffffff;fill-opacity:1;stroke:none"
       id="path4246-5-82-7"
       sodipodi:cx="840.06812"
       sodipodi:cy="613.78479"
       sodipodi:rx="2.1465743"
       sodipodi:ry="2.0203052"
       d="m 842.21469,613.78479 c 0,1.11578 -0.96105,2.02031 -2.14657,2.02031 -1.18552,0 -2.14658,-0.90453 -2.14658,-2.02031 0,-1.11578 0.96106,-2.02031 2.14658,-2.02031 1.18552,0 2.14657,0.90453 2.14657,2.02031 z"
       transform="matrix(0.37500002,0,0,0.37500002,285.35052,377.38103)"
       inkscape:export-filename="/home/etinquis/engine.png"
       inkscape:export-xdpi="122.51501"
       inkscape:export-ydpi="122.51501" />
    <path
       sodipodi:type="arc"
       style="fill:#ffffff;fill-opacity:1;stroke:none"
       id="path4246-5-8-5-4"
       sodipodi:cx="840.06812"
       sodipodi:cy="613.78479"
       sodipodi:rx="2.1465743"
       sodipodi:ry="2.0203052"
       d="m 842.21469,613.78479 c 0,1.11578 -0.96105,2.02031 -2.14657,2.02031 -1.18552,0 -2.14658,-0.90453 -2.14658,-2.02031 0,-1.11578 0.96106,-2.02031 2.14658,-2.02031 1.18552,0 2.14657,0.90453 2.14657,2.02031 z"
       transform="matrix(0.37500002,0,0,0.37500002,287.62332,376.65503)"
       inkscape:export-filename="/home/etinquis/engine.png"
       inkscape:export-xdpi="122.51501"
       inkscape:export-ydpi="122.51501" />
    <path
       sodipodi:type="arc"
       style="fill:#ffffff;fill-opacity:1;stroke:none"
       id="path4246-5-5-2-9"
       sodipodi:cx="840.06812"
       sodipodi:cy="613.78479"
       sodipodi:rx="2.1465743"
       sodipodi:ry="2.0203052"
       d="m 842.21469,613.78479 c 0,1.11578 -0.96105,2.02031 -2.14657,2.02031 -1.18552,0 -2.14658,-0.90453 -2.14658,-2.02031 0,-1.11578 0.96106,-2.02031 2.14658,-2.02031 1.18552,0 2.14657,0.90453 2.14657,2.02031 z"
       transform="matrix(0.37500002,0,0,0.37500002,289.76992,377.53883)"
       inkscape:export-filename="/home/etinquis/engine.png"
       inkscape:export-xdpi="122.51501"
       inkscape:export-ydpi="122.51501" />
    <path
       sodipodi:type="arc"
       style="fill:#ffffff;fill-opacity:1;stroke:none"
       id="path4246-5-6-5-0"
       sodipodi:cx="840.06812"
       sodipodi:cy="613.78479"
       sodipodi:rx="2.1465743"
       sodipodi:ry="2.0203052"
       d="m 842.21469,613.78479 c 0,1.11578 -0.96105,2.02031 -2.14657,2.02031 -1.18552,0 -2.14658,-0.90453 -2.14658,-2.02031 0,-1.11578 0.96106,-2.02031 2.14658,-2.02031 1.18552,0 2.14657,0.90453 2.14657,2.02031 z"
       transform="matrix(0.37500002,0,0,0.37500002,291.85332,377.12853)"
       inkscape:export-filename="/home/etinquis/engine.png"
       inkscape:export-xdpi="122.51501"
       inkscape:export-ydpi="122.51501" />
    <path
       sodipodi:type="arc"
       style="fill:#ffffff;fill-opacity:1;stroke:none"
       id="path4246-5-2-0-4"
       sodipodi:cx="840.06812"
       sodipodi:cy="613.78479"
       sodipodi:rx="2.1465743"
       sodipodi:ry="2.0203052"
       d="m 842.21469,613.78479 c 0,1.11578 -0.96105,2.02031 -2.14657,2.02031 -1.18552,0 -2.14658,-0.90453 -2.14658,-2.02031 0,-1.11578 0.96106,-2.02031 2.14658,-2.02031 1.18552,0 2.14657,0.90453 2.14657,2.02031 z"
       transform="matrix(0.37500002,0,0,0.37500002,293.87362,376.24463)"
       inkscape:export-filename="/home/etinquis/engine.png"
       inkscape:export-xdpi="122.51501"
       inkscape:export-ydpi="122.51501" />
  </g>
</svg>
