<?xml version="1.0" encoding="UTF-8" standalone="no"?>
<!-- Created with Inkscape (http://www.inkscape.org/) -->

<svg
   xmlns:dc="http://purl.org/dc/elements/1.1/"
   xmlns:cc="http://creativecommons.org/ns#"
   xmlns:rdf="http://www.w3.org/1999/02/22-rdf-syntax-ns#"
   xmlns:svg="http://www.w3.org/2000/svg"
   xmlns="http://www.w3.org/2000/svg"
   xmlns:sodipodi="http://sodipodi.sourceforge.net/DTD/sodipodi-0.dtd"
   xmlns:inkscape="http://www.inkscape.org/namespaces/inkscape"
   width="201.84265"
   height="218.78816"
   id="svg8132"
   version="1.1"
   inkscape:version="0.48.1 r9760"
   sodipodi:docname="monocleman.svg">
  <defs
     id="defs8134">
    <filter
       inkscape:collect="always"
       id="filter3929-6-9"
       x="-0.042146154"
       width="1.0842923"
       y="-0.12012987"
       height="1.2402596"
       color-interpolation-filters="sRGB">
      <feGaussianBlur
         inkscape:collect="always"
         stdDeviation="0.43904474"
         id="feGaussianBlur3931-49-5" />
    </filter>
    <filter
       inkscape:collect="always"
       id="filter3865-5-0"
       color-interpolation-filters="sRGB">
      <feGaussianBlur
         inkscape:collect="always"
         stdDeviation="1.0107517"
         id="feGaussianBlur3867-2-8" />
    </filter>
    <filter
       inkscape:collect="always"
       id="filter3887-2-7"
       x="-0.041060369"
       width="1.0821207"
       y="-0.12992246"
       height="1.2598449"
       color-interpolation-filters="sRGB">
      <feGaussianBlur
         inkscape:collect="always"
         stdDeviation="1.7238977"
         id="feGaussianBlur3889-3-5" />
    </filter>
    <filter
       inkscape:collect="always"
       id="filter3815-69-8"
       color-interpolation-filters="sRGB">
      <feGaussianBlur
         inkscape:collect="always"
         stdDeviation="0.74808946"
         id="feGaussianBlur3817-5-8" />
    </filter>
    <filter
       inkscape:collect="always"
       id="filter3975-1-2"
       x="-0.19929679"
       width="1.3985935"
       y="-0.11533239"
       height="1.2306648"
       color-interpolation-filters="sRGB">
      <feGaussianBlur
         inkscape:collect="always"
         stdDeviation="2.2580853"
         id="feGaussianBlur3977-7-8" />
    </filter>
  </defs>
  <sodipodi:namedview
     id="base"
     pagecolor="#ffffff"
     bordercolor="#666666"
     borderopacity="1.0"
     inkscape:pageopacity="0.0"
     inkscape:pageshadow="2"
     inkscape:zoom="0.7"
     inkscape:cx="218.78178"
     inkscape:cy="74.386914"
     inkscape:document-units="px"
     inkscape:current-layer="layer1"
     showgrid="false"
     inkscape:window-width="496"
     inkscape:window-height="419"
     inkscape:window-x="479"
     inkscape:window-y="170"
     inkscape:window-maximized="0"
     fit-margin-top="0"
     fit-margin-left="0"
     fit-margin-right="0"
     fit-margin-bottom="0" />
  <metadata
     id="metadata8137">
    <rdf:RDF>
      <cc:Work
         rdf:about="">
        <dc:format>image/svg+xml</dc:format>
        <dc:type
           rdf:resource="http://purl.org/dc/dcmitype/StillImage" />
        <dc:title />
      </cc:Work>
    </rdf:RDF>
  </metadata>
  <g
     inkscape:label="Layer 1"
     inkscape:groupmode="layer"
     id="layer1"
     transform="translate(-8.364384,-11.324557)">
    <path
       style="fill:#fdd14d;fill-opacity:1;stroke:none"
       d="m 8.364384,220.16917 c 45.5421,15.5395 157.537526,11.4418 201.819706,-2.4851 1.48336,-44.4749 -69.31321,-128.6201 -106.40093,-154.3504 -58.186726,47.8099 -86.619396,103.4909 -95.418776,156.8355 z"
       id="path2987-6-6"
       inkscape:connector-curvature="0"
       sodipodi:nodetypes="cccc" />
    <path
       sodipodi:type="arc"
       style="fill:#ddad28;fill-opacity:1;stroke:none;filter:url(#filter3975-1-2)"
       id="path3761-2-8-0-6"
       sodipodi:cx="206.07112"
       sodipodi:cy="145.62401"
       sodipodi:rx="7.8286824"
       sodipodi:ry="20.329321"
       d="m 213.8998,145.62401 c 0,11.22757 -3.50502,20.32932 -7.82868,20.32932 -4.32366,0 -7.82868,-9.10175 -7.82868,-20.32932 0,-11.22758 3.50502,-20.32932 7.82868,-20.32932 4.32366,0 7.82868,9.10174 7.82868,20.32932 z"
       transform="matrix(3.1191102,0.31218481,0.70455465,0.80491881,-638.4899,-89.949243)" />
    <path
       sodipodi:type="arc"
       style="fill:#ddad28;fill-opacity:1;stroke:none;filter:url(#filter3815-69-8)"
       id="path3761-2-1-5"
       sodipodi:cx="206.07112"
       sodipodi:cy="145.62401"
       sodipodi:rx="7.8286824"
       sodipodi:ry="20.329321"
       d="m 213.8998,145.62401 c 0,11.22757 -3.50502,20.32932 -7.82868,20.32932 -4.32366,0 -7.82868,-9.10175 -7.82868,-20.32932 0,-11.22758 3.50502,-20.32932 7.82868,-20.32932 4.32366,0 7.82868,9.10174 7.82868,20.32932 z"
       transform="matrix(1.905817,-0.58738208,0.5742647,1.7827731,-362.60161,12.089257)" />
    <path
       style="fill:#ddad28;fill-opacity:1;stroke:none;filter:url(#filter3887-2-7)"
       d="m 320.59717,203.07115 c -25.00128,-0.50508 -21.30878,25.64498 -42.17387,22.98097 17.52071,15.01366 34.84709,9.0934 48.99241,-4.04062 10.10471,9.59442 26.43723,15.90407 51.77031,5.05077 -25.93216,-6.81268 -17.67767,-26.26397 -35.86041,-22.98097 -15.37211,2.77552 -22.72844,-1.01015 -22.72844,-1.01015 z"
       id="path3783-4-5-1"
       inkscape:connector-curvature="0"
       sodipodi:nodetypes="ccccsc"
       transform="matrix(0.99934891,-0.03607992,0.03607992,0.99934891,-226.17646,-11.719243)" />
    <path
       style="fill:#35322b;fill-opacity:1;stroke:none"
       d="m 102.6992,173.29847 c -25.003226,0.3973 -20.36965,26.3971 -41.317266,24.4876 18.051,14.3718 35.152486,7.8302 48.814736,-5.8056 10.4443,9.2236 26.99383,14.9399 51.91883,3.1796 -26.16107,-5.8726 -18.61376,-25.609 -36.66621,-21.6722 -15.26196,3.3284 -22.75009,-0.1894 -22.75009,-0.1894 z"
       id="path3783-62-9"
       inkscape:connector-curvature="0"
       sodipodi:nodetypes="ccccsc" />
    <path
       sodipodi:type="arc"
       style="fill:#ddad28;fill-opacity:1;stroke:none;filter:url(#filter3865-5-0)"
       id="path3763-7-70-4"
       sodipodi:cx="229.43089"
       sodipodi:cy="121.12781"
       sodipodi:rx="18.814091"
       sodipodi:ry="20.076782"
       d="m 248.24498,121.12781 c 0,11.0881 -8.42335,20.07678 -18.81409,20.07678 -10.39073,0 -18.81409,-8.98868 -18.81409,-20.07678 0,-11.0881 8.42336,-20.07678 18.81409,-20.07678 10.39074,0 18.81409,8.98868 18.81409,20.07678 z"
       transform="matrix(1.2743375,-0.04600795,0.04447587,1.2319018,-163.94663,-13.489543)" />
    <path
       sodipodi:type="arc"
       style="fill:#eb7e31;fill-opacity:1;stroke:none"
       id="path3761-6-4"
       sodipodi:cx="206.07112"
       sodipodi:cy="145.62401"
       sodipodi:rx="7.8286824"
       sodipodi:ry="20.329321"
       d="m 213.8998,145.62401 c 0,11.22757 -3.50502,20.32932 -7.82868,20.32932 -4.32366,0 -7.82868,-9.10175 -7.82868,-20.32932 0,-11.22758 3.50502,-20.32932 7.82868,-20.32932 4.32366,0 7.82868,9.10174 7.82868,20.32932 z"
       transform="matrix(1.905817,-0.58738208,0.5742647,1.7827731,-366.28284,11.843057)" />
    <path
       sodipodi:type="arc"
       style="fill:#35322b;fill-opacity:1;stroke:none"
       id="path3757-1-1"
       sodipodi:cx="253.92709"
       sodipodi:cy="147.6443"
       sodipodi:rx="4.6719556"
       sodipodi:ry="7.7024131"
       d="m 258.59905,147.6443 c 0,4.25393 -2.09171,7.70242 -4.67196,7.70242 -2.58025,0 -4.67195,-3.44849 -4.67195,-7.70242 0,-4.25392 2.0917,-7.70241 4.67195,-7.70241 2.58025,0 4.67196,3.44849 4.67196,7.70241 z"
       transform="matrix(0.90985866,-0.397237,0.30115372,0.74994103,-193.99428,126.86837)" />
    <path
       style="fill:#35322b;fill-opacity:1;stroke:none"
       d="m 97.6204,123.61707 c -15.43728,3.589 -14.45431,-11.9297 -38.407856,0.082 22.283266,-5.887 21.501696,18.1401 38.407856,-0.082 z"
       id="path3759-2-8"
       inkscape:connector-curvature="0"
       sodipodi:nodetypes="ccc" />
    <path
       sodipodi:type="arc"
       style="fill:#ffffff;fill-opacity:1;stroke:none"
       id="path3763-2-6"
       sodipodi:cx="229.43089"
       sodipodi:cy="121.12781"
       sodipodi:rx="18.814091"
       sodipodi:ry="20.076782"
       d="m 248.24498,121.12781 c 0,11.0881 -8.42335,20.07678 -18.81409,20.07678 -10.39073,0 -18.81409,-8.98868 -18.81409,-20.07678 0,-11.0881 8.42336,-20.07678 18.81409,-20.07678 10.39074,0 18.81409,8.98868 18.81409,20.07678 z"
       transform="matrix(1.2743375,-0.04600795,0.04447587,1.2319018,-165.04724,-15.976843)" />
    <path
       sodipodi:type="arc"
       style="fill:#35322b;fill-opacity:1;stroke:none"
       id="path3757-2-4-3"
       sodipodi:cx="253.92709"
       sodipodi:cy="147.6443"
       sodipodi:rx="4.6719556"
       sodipodi:ry="7.7024131"
       d="m 258.59905,147.6443 c 0,4.25393 -2.09171,7.70242 -4.67196,7.70242 -2.58025,0 -4.67195,-3.44849 -4.67195,-7.70242 0,-4.25392 2.0917,-7.70241 4.67195,-7.70241 2.58025,0 4.67196,3.44849 4.67196,7.70241 z"
       transform="matrix(0.93613134,-0.33060268,0.24629947,0.76970233,-148.75949,98.06037)" />
    <path
       style="fill:#35322b;fill-opacity:1;stroke:none"
       d="m 57.145074,80.43227 c 26.357546,15.0497 65.918066,12.7945 92.557376,-5.1105 l -19.92841,0.9722 0.68681,-64.969413 -58.523376,2.871 4.88364,65.273713 z"
       id="path3891-8-1"
       inkscape:connector-curvature="0"
       sodipodi:nodetypes="ccccccc" />
    <path
       style="fill:#000000;fill-opacity:1;stroke:none"
       d="m 75.988354,70.40197 0.7651,8.9434 53.525336,-3.0696 -0.37358,-10.3474 z"
       id="path3893-6-4"
       inkscape:connector-curvature="0"
       sodipodi:nodetypes="ccccc" />
    <path
       style="fill:none;stroke:#ddad28;stroke-width:1px;stroke-linecap:butt;stroke-linejoin:miter;stroke-opacity:1;filter:url(#filter3929-6-9)"
       d="m 285.62064,168.98378 c 9.21764,10.48033 15.65736,12.37437 25.00127,1.26269"
       id="path3919-8-9"
       inkscape:connector-curvature="0"
       sodipodi:nodetypes="cc"
       transform="matrix(0.99934891,-0.03607992,0.03607992,0.99934891,-226.17646,-11.719243)" />
  </g>
</svg>
